<svg overflow="visible" style="display: block;" viewBox="0 0 81 12" fill="none" xmlns="http://www.w3.org/2000/svg">
<g id="Logo_Color_Light" opacity="0.6">
<path d="M0 3.23524H1.42995L3.25774 9.79282H3.3327L5.14323 3.23524H6.59047L8.36637 9.76379H8.45865L10.2807 3.23524H11.6991L9.10442 11.8374H7.76672L5.9101 5.27395H5.78324L3.9439 11.8374H2.59468L0 3.23524Z" fill="#929292"/>
<path d="M13.3713 1.68441C13.2271 1.6089 13.1118 1.49273 13.0253 1.35333C12.9388 1.20812 12.8984 1.05711 12.8984 0.900283C12.8984 0.731842 12.9388 0.57503 13.0253 0.441439C13.106 0.302039 13.2271 0.197472 13.3713 0.116156C13.5154 0.0406474 13.6769 0 13.8442 0C14.0229 0 14.1844 0.0406474 14.3286 0.116156C14.4727 0.197472 14.5881 0.302039 14.6746 0.441439C14.7553 0.580838 14.8015 0.731842 14.8015 0.900283C14.8015 1.05711 14.7611 1.20812 14.6746 1.35333C14.5881 1.49273 14.4727 1.6089 14.3286 1.68441C14.1844 1.76573 14.0172 1.80058 13.8442 1.80058C13.6711 1.80058 13.5212 1.75992 13.3713 1.68441ZM13.1694 3.23524H14.5246V11.8374H13.1694V3.23524Z" fill="#929292"/>
<path d="M20.3711 4.37367H15.9198V3.23525H20.3711V4.37367ZM18.5779 1.17328V9.36302C18.5779 9.71152 18.6298 9.9787 18.7278 10.1646C18.8258 10.3504 18.9584 10.4782 19.1199 10.5421C19.2813 10.6118 19.4716 10.6467 19.6965 10.6467C19.9559 10.6467 20.2269 10.635 20.4979 10.6176V11.8838C20.2269 11.9245 19.9098 11.9477 19.5523 11.9477C19.1545 11.9477 18.7739 11.8606 18.4222 11.6922C18.0647 11.5237 17.7764 11.2682 17.5515 10.9313C17.3266 10.5944 17.2114 10.1878 17.2114 9.71152V1.17328H18.5779Z" fill="#929292"/>
<path d="M23.6173 11.8374H22.2623V0.365925H23.6173V4.58276H23.7269C23.9344 4.11809 24.2458 3.75799 24.6552 3.50823C25.0646 3.25266 25.595 3.12488 26.2408 3.12488C26.8405 3.12488 27.3536 3.24104 27.7918 3.47918C28.2301 3.71732 28.5645 4.07743 28.8009 4.56533C29.0373 5.05323 29.1526 5.6515 29.1526 6.37173V11.8374H27.7976V6.46466C27.7976 6.01742 27.7227 5.63988 27.5612 5.31461C27.3998 4.98934 27.1749 4.7512 26.8866 4.58276C26.5983 4.41431 26.2408 4.33882 25.8314 4.33882C25.399 4.33882 25.0184 4.43174 24.6898 4.60599C24.3611 4.78605 24.0959 5.05324 23.9056 5.40754C23.7096 5.76185 23.6115 6.18006 23.6115 6.66796V11.8315L23.6173 11.8374Z" fill="#929292"/>
<path d="M35.4779 0.365925H42.3336V1.63214H36.8906V5.46563H41.8146V6.72023H36.8906V11.8374H35.4779V0.365925Z" fill="#929292"/>
<path d="M45.822 0.365925V10.5711H51.1036V11.8374H44.4035V0.365925H45.822Z" fill="#929292"/>
<path d="M52.966 0.365925H59.8736V1.63214H54.3844V5.46563H59.5103V6.72023H54.3844V10.5711H59.9543V11.8374H52.9718V0.365925H52.966Z" fill="#929292"/>
<path d="M65.6914 5.09971H65.7894L68.7013 0.360117H70.3676L66.7985 6.09874L70.3676 11.8316H68.7013L65.7894 7.19071H65.6914L62.7796 11.8316H61.1133L64.7804 6.09874L61.1133 0.360117H62.7969L65.6914 5.09971Z" fill="#929292"/>
<path d="M78.7859 2.66021C78.4803 2.30009 78.117 2.0213 77.6903 1.82962C77.2637 1.63214 76.7851 1.53339 76.2489 1.53339C75.5685 1.53339 74.9515 1.71346 74.4095 2.06776C73.8675 2.42207 73.4293 2.93902 73.1122 3.63021C72.7893 4.31559 72.6336 5.14038 72.6336 6.10456C72.6336 7.06874 72.795 7.88771 73.1122 8.57309C73.4293 9.25848 73.8733 9.78121 74.4326 10.1355C74.9919 10.4898 75.6319 10.6699 76.3411 10.6699C76.9927 10.6699 77.5635 10.5305 78.0536 10.2517C78.5495 9.97289 78.93 9.57212 79.201 9.05518C79.472 8.53824 79.6104 7.93999 79.6104 7.26622L80.0371 7.34753H76.641V6.09293H81V7.3301C81 8.25944 80.7982 9.07842 80.4003 9.78703C80.0025 10.4956 79.4489 11.0416 78.7513 11.425C78.0478 11.8083 77.2464 12 76.3411 12C75.3378 12 74.4499 11.7618 73.683 11.2798C72.9161 10.7977 72.3222 10.1181 71.8955 9.22942C71.4689 8.34075 71.2613 7.30106 71.2613 6.11035C71.2613 4.91965 71.4746 3.87415 71.8955 2.99129C72.3222 2.10261 72.9104 1.42304 73.6657 0.94095C74.421 0.458859 75.2802 0.220723 76.2431 0.220723C77.0388 0.220723 77.7711 0.377547 78.4284 0.691196C79.0857 1.00485 79.6392 1.44046 80.0717 2.00387C80.5099 2.56727 80.7924 3.22363 80.9308 3.96128H79.4663C79.3106 3.46758 79.08 3.03775 78.7744 2.67763L78.7859 2.66021Z" fill="#929292"/>
</g>
</svg>
