<svg width="14" height="18" viewBox="0 0 14 18" fill="none" xmlns="http://www.w3.org/2000/svg">
<g id="icon">
<path id="Vector" d="M13.0434 8.74783C12.588 8.08634 12.348 7.32983 12.348 6.55505V5.93011C12.348 3.21106 9.94756 1 7 1C4.05245 1 1.65204 3.21471 1.65204 5.93376V6.5587C1.65204 7.32983 1.412 8.09 0.956631 8.75149C0.331821 9.66149 0 10.714 0 11.7885V13.2028C0 13.6048 0.3177 13.9338 0.706001 13.9338H3.40998C3.73475 15.677 5.22088 17 7 17C8.77912 17 10.2653 15.677 10.59 13.9338H13.294C13.6823 13.9338 14 13.6048 14 13.2028V11.7885C14 10.7104 13.6682 9.66149 13.0434 8.75149V8.74783ZM7 15.5381C6.00454 15.5381 5.15734 14.862 4.86435 13.9338H9.13565C8.84266 14.8657 7.99546 15.5381 7 15.5381ZM12.588 12.4683H1.412V11.7848C1.412 11.0137 1.65204 10.2535 2.10741 9.59571C2.73222 8.6857 3.06404 7.63317 3.06404 6.55505V5.93011C3.06404 4.01873 4.82905 2.46185 7 2.46185C9.17095 2.46185 10.936 4.01508 10.936 5.93011V6.55505C10.936 7.63317 11.2678 8.6857 11.8926 9.59571C12.348 10.2572 12.588 11.0137 12.588 11.7848V12.4683Z" fill="var(--fill-0, #B8B8B8)"/>
</g>
</svg>
